<?xml version="1.0" standalone="no"?><!-- Generator: Gravit.io --><svg xmlns="http://www.w3.org/2000/svg" xmlns:xlink="http://www.w3.org/1999/xlink" style="isolation:isolate" viewBox="0 0 595.276 841.89" width="595.276" height="841.89"><defs><clipPath id="_clipPath_ou9HgTKbANkAza43XeXH0wIMiI8noo5M"><rect width="595.276" height="841.89"/></clipPath></defs><g clip-path="url(#_clipPath_ou9HgTKbANkAza43XeXH0wIMiI8noo5M)"><g style="isolation:isolate" id="Hombre"/><g style="isolation:isolate" id="Cascos"><defs><linearGradient id="_lgradient_1" x1="0" y1="0.5" x2="1" y2="0.5"><stop offset="6.956521739130439%" style="stop-color:#2F7340"/><stop offset="95.21739130434783%" style="stop-color:#045080"/></linearGradient></defs><path d="M 122.638 145.945 L 472.638 145.945 C 527.829 145.945 572.638 190.753 572.638 245.945 L 572.638 595.945 C 572.638 651.136 527.829 695.945 472.638 695.945 L 122.638 695.945 C 67.446 695.945 22.638 651.136 22.638 595.945 L 22.638 245.945 C 22.638 190.753 67.446 145.945 122.638 145.945 Z" style="stroke:none;fill:url(#_lgradient_1);stroke-miterlimit:10;"/><path d=" M 300.637 410.433 C 249.861 410.433 208.637 367.417 208.637 314.433 C 208.637 261.449 249.861 218.433 300.637 218.433 M 179.536 655.16 C 173.643 521.727 226.159 410.865 296.735 407.749 M 173.082 294.87 C 172.792 295.741 172.638 296.644 172.638 297.57 L 172.638 313.681 L 172.638 321.181 C 172.638 328.468 182.089 334.376 193.749 334.376 L 202.638 334.376 L 202.638 284.376 L 193.749 284.376 C 183.57 284.375 175.076 288.877 173.082 294.87 Z  M 422.638 321.181 L 422.638 313.419 L 422.638 297.57 C 422.638 297.001 422.573 296.441 422.462 295.891 C 421.142 289.397 412.276 284.376 401.526 284.376 L 392.638 284.376 L 392.638 334.376 L 401.527 334.376 C 413.187 334.375 422.638 328.467 422.638 321.181 Z  M 188.455 310.64 C 188.073 242.59 236.501 187.068 296.533 186.731 C 356.565 186.394 405.614 241.368 405.995 309.419" fill-rule="evenodd" fill="none" vector-effect="non-scaling-stroke" stroke-width="8" stroke="rgb(204,197,197)" stroke-opacity="100" stroke-linejoin="miter" stroke-linecap="square" stroke-miterlimit="3"/></g><g style="isolation:isolate" id="Nota Sol"><g id="sol"><g id="Group"><path d=" M 258.949 512.182 C 273.49 550.339 333.126 578.26 369.696 558.379 C 383.285 592.041 386.96 669.396 315.087 646.401 C 314.891 646.506 311.972 645.252 309.104 642.869 C 325.23 646.763 341.26 633.861 341.26 616.008 C 341.26 600.817 329.454 588.437 314.983 588.437 C 277.46 588.437 281.573 649.337 321.281 654.842 C 337.717 657.108 350.269 654.778 359.69 649.433 C 393.521 630.18 382.3 588.121 374.991 556.656 C 380.505 552.618 406.87 540.195 412.099 512.191 C 418.355 462.902 387.758 443.46 351.166 447.359 L 340.787 397.894 C 352.513 387.384 364.15 376.161 372.622 362.542 C 398.441 321.044 393.268 267.7 364.267 228.584 C 361.402 224.73 356.364 224.763 353.443 228.576 C 321.193 270.634 320.42 304.372 324.123 330.693 C 325.71 340.893 328.086 351.043 329.305 361.273 C 319.925 369.894 309.719 379.125 300.009 389.416 C 270.787 421.323 243.907 466.187 258.949 512.182 Z  M 372.662 549.764 C 366.919 522.407 361.773 497.934 356.131 471.032 C 402.914 470.401 407.795 528.038 372.662 549.764 Z  M 342.983 274.721 C 348.261 263.309 354.729 250.106 365.365 252.929 C 380.63 256.975 384.092 282.496 376.149 304.979 C 368.735 325.981 353.795 338.551 350.606 342.742 C 344.619 350.62 338.497 356.735 332.955 358.422 C 329.815 340.848 331.352 299.806 342.983 274.721 Z  M 336 402.118 L 345.516 447.355 C 306.728 454.521 287.565 509.559 324.647 528.135 C 328.856 530.238 329.281 529.094 326.25 525.394 C 310.422 506.005 322.128 472.707 350.505 471.046 C 356.432 499.239 361.73 524.434 367.649 552.531 C 332.696 569.626 288.038 554.886 276.308 513.567 C 274.823 511.249 274.667 508.756 274.651 506.077 C 266.758 455.455 304.403 429.875 336 402.118 Z " fill="rgb(9,33,38)"/></g></g></g></g></svg>