<?xml version="1.0" standalone="no"?><!-- Generator: Gravit.io --><svg xmlns="http://www.w3.org/2000/svg" xmlns:xlink="http://www.w3.org/1999/xlink" style="isolation:isolate" viewBox="791 -76.976 250 477.431" width="250" height="477.431"><g id="sol"><g id="Group"><path d=" M 877.3109 252.4773 C 891.8519 290.6336 951.4879 318.5547 988.0579 298.6743 C 1001.6469 332.3358 1005.3219 409.6914 933.4489 386.6963 C 933.2529 386.8012 930.3339 385.5472 927.4659 383.1639 C 943.5919 387.0584 959.6219 374.1556 959.6219 356.3027 C 959.6219 341.1122 947.8159 328.7321 933.3449 328.7321 C 895.8219 328.7321 899.9349 389.6316 939.6429 395.1369 C 956.0789 397.4026 968.6309 395.0729 978.0519 389.7281 C 1011.8829 370.4753 1000.6619 328.4162 993.3529 296.9511 C 998.8669 292.9129 1025.2319 280.4898 1030.4609 252.4857 C 1036.7169 203.1972 1006.1199 183.7554 969.5279 187.6541 L 959.1489 138.1892 C 970.8749 127.6791 982.5119 116.4555 990.9839 102.837 C 1016.8029 61.3394 1011.6299 7.9948 982.6289 -31.1206 C 979.7639 -34.9752 974.7259 -34.9416 971.8049 -31.129 C 939.5549 10.929 938.7819 44.6671 942.4849 70.9879 C 944.0719 81.1883 946.4479 91.3384 947.6669 101.5683 C 938.2869 110.1893 928.0809 119.4201 918.3709 129.7108 C 889.1489 161.6177 862.2689 206.4819 877.3109 252.4773 Z  M 991.0239 290.0585 C 985.2809 262.7019 980.1349 238.2292 974.4929 211.3271 C 1021.2759 210.6964 1026.1569 268.3332 991.0239 290.0585 Z  M 961.3449 15.0155 C 966.6229 3.604 973.0909 -9.5989 983.7269 -6.7759 C 998.9919 -2.7304 1002.4539 22.7907 994.5109 45.2737 C 987.0969 66.2759 972.1569 78.846 968.9679 83.0374 C 962.9809 90.9145 956.8589 97.0295 951.3169 98.717 C 948.1769 81.1432 949.7139 40.101 961.3449 15.0155 Z  M 954.3619 142.4131 L 963.8779 187.6499 C 925.0899 194.8164 905.9269 249.8538 943.0089 268.4297 C 947.2179 270.5328 947.6429 269.3889 944.6119 265.6886 C 928.7839 246.3004 940.4899 213.002 968.8669 211.3407 C 974.7939 239.5337 980.0919 264.7294 986.0109 292.8258 C 951.0579 309.9211 906.3999 295.1808 894.6699 253.8615 C 893.1849 251.5444 893.0289 249.051 893.0129 246.3718 C 885.1199 195.7504 922.7649 170.1695 954.3619 142.4131 Z " fill="rgb(0,0,0)"/></g></g><path d=" M 918.9992 150.7277 C 868.223 150.7277 826.9992 107.7116 826.9992 54.7277 C 826.9992 1.7439 868.223 -41.2723 918.9992 -41.2723" fill="none" vector-effect="non-scaling-stroke" stroke-width="10" stroke="rgb(0,0,0)" stroke-linejoin="miter" stroke-linecap="square" stroke-miterlimit="3"/><path d=" M 797.8979 395.4553 C 792.0056 262.0216 844.5209 151.1602 915.0972 148.0436" fill="none" vector-effect="non-scaling-stroke" stroke-width="10" stroke="rgb(0,0,0)" stroke-linejoin="miter" stroke-linecap="square" stroke-miterlimit="3"/><g id="cascos"><g id="Group"><g id="Group"><path d=" M 791.4441 35.1647 C 791.1542 36.0363 791 36.9391 791 37.8647 L 791 53.9764 L 791 61.4759 C 791 68.7625 800.4515 74.6706 812.1113 74.6706 L 821 74.6706 L 821 24.6706 L 812.1113 24.6706 C 801.9323 24.6703 793.4384 29.1721 791.4441 35.1647 Z " fill="rgb(0,0,0)"/><path d=" M 1041 61.4757 L 1041 53.7142 L 1041 37.8646 C 1041 37.2959 1040.9356 36.7362 1040.8238 36.1861 C 1039.504 29.6917 1030.6379 24.6706 1019.8886 24.6706 L 1011 24.6706 L 1011 74.6706 L 1019.8889 74.6706 C 1031.5488 74.6703 1041 68.7623 1041 61.4757 Z " fill="rgb(0,0,0)"/></g></g></g><path d=" M 806.8169 50.9347 C 806.4349 -17.1154 854.8631 -72.6371 914.8951 -72.9741 C 974.9271 -73.3112 1023.9757 -18.3367 1024.3577 49.7135" fill="none" vector-effect="non-scaling-stroke" stroke-width="8" stroke="rgb(0,0,0)" stroke-linejoin="miter" stroke-linecap="square" stroke-miterlimit="3"/></svg>